<?xml version="1.0" encoding="utf-8"?>
<!-- Generator: Adobe Illustrator 21.1.0, SVG Export Plug-In . SVG Version: 6.00 Build 0)  -->
<svg version="1.1" id="Layer_1" xmlns="http://www.w3.org/2000/svg" xmlns:xlink="http://www.w3.org/1999/xlink" x="0px" y="0px"
	 viewBox="0 0 512 512" style="enable-background:new 0 0 512 512;" xml:space="preserve">
<style type="text/css">
	.st0{fill:#C1C7D1;}
</style>
<path class="st0" d="M460.8,102.4H349.9c0-14.5-6.2-28.4-17.1-38.1V34.1c0-18.9-15.3-34.1-34.1-34.1s-34.1,15.3-34.1,34.1v30.2
	c-10.9,9.7-17.1,23.5-17.1,38.1H102.4V85.3c0-28.3-22.9-51.2-51.2-51.2S0,57.1,0,85.3v375.5C0,489.1,22.9,512,51.2,512h409.6
	c28.3,0,51.2-22.9,51.2-51.2V153.6C512,125.3,489.1,102.4,460.8,102.4z M419,348.2L375.6,255l-50.7-108.7c5.1-3,9.6-6.9,13.4-11.5
	l86,184.3C428.8,328.9,426.7,340.6,419,348.2L419,348.2z M178.3,348.2c-7.7-7.6-9.8-19.2-5.2-29.1l85.9-184.3
	c3.8,4.6,8.3,8.5,13.4,11.5L221.8,255L178.3,348.2z M288.4,152.6c6.8,1.4,13.8,1.4,20.6,0l47.2,101.2c-37,14.3-78,14.3-115,0
	L288.4,152.6z M281.6,34.1c0-9.4,7.6-17.1,17.1-17.1s17.1,7.6,17.1,17.1v20.1c-11-4-23.1-4-34.1,0V34.1z M298.7,68.3
	c18.9,0,34.1,15.3,34.1,34.1s-15.3,34.1-34.1,34.1s-34.1-15.3-34.1-34.1S279.8,68.3,298.7,68.3z M51.2,51.2
	c18.9,0,34.1,15.3,34.1,34.1v303.3c-19.4-17.5-48.9-17.5-68.3,0V85.3C17.1,66.5,32.3,51.2,51.2,51.2z M494.9,460.8
	c0,18.9-15.3,34.1-34.1,34.1H51.2c-18.9,0-34.1-15.3-34.1-34.1v-34.1c0-18.9,15.3-34.1,34.1-34.1s34.1,15.3,34.1,34.1
	c0,4.7,3.8,8.5,8.5,8.5c4.7,0,8.5-3.8,8.5-8.5V119.5h145l-89.7,192.4c-8.6,18.4-3.1,40.2,13.2,52.3l-7.6,16.2
	c-1.4,2.8-1.2,6.1,0.6,8.7c1.8,2.6,4.8,4,7.9,3.7c3.1-0.3,5.8-2.3,7-5.1l18-38.7l37.1-79.6c41.6,16.4,87.9,16.4,129.5,0l37.1,79.6
	l18,38.7c1.2,2.9,3.9,4.8,7,5.1c3.1,0.3,6.1-1.1,7.9-3.7c1.8-2.6,2-5.9,0.6-8.7l-7.6-16.2c16.3-12.1,21.8-33.9,13.2-52.3L350,119.5
	h110.8c18.9,0,34.1,15.3,34.1,34.1V460.8z"/>
<path class="st0" d="M293.9,109.5c0.5,0.3,1,0.6,1.5,0.8c0.5,0.2,1,0.4,1.5,0.5c0.6,0.1,1.1,0.2,1.7,0.2c0.5,0,1.1-0.1,1.6-0.2
	c0.6-0.1,1.1-0.2,1.6-0.5c0.5-0.2,1-0.4,1.4-0.8c0.5-0.3,0.9-0.6,1.4-1c3.3-3.3,3.3-8.7,0-12.1c-3.3-3.3-8.7-3.3-12.1,0
	c-3.3,3.3-3.3,8.7,0,12.1C293,108.8,293.4,109.2,293.9,109.5z"/>
<path class="st0" d="M400.4,423.4c-0.4-1-1.1-2-1.9-2.8L373,395c-3.3-3.2-8.7-3.2-12,0.1s-3.3,8.6-0.1,12l11,11H225.4l11-11
	c3.2-3.4,3.2-8.7-0.1-12c-3.3-3.3-8.6-3.3-12-0.1l-25.6,25.6c-0.7,0.7-1.3,1.6-1.7,2.6c-0.1,0.3-0.2,0.6-0.3,0.9
	c-0.2,0.7-0.4,1.4-0.4,2.1c0,0.3-0.1,0.6,0,0.9c0,0.9,0.2,1.8,0.5,2.7c0,0.1,0,0.2,0.1,0.2c0.4,0.9,1,1.8,1.7,2.5
	c0.1,0.1,0.1,0.2,0.2,0.3l25.6,25.6c3.3,3.2,8.7,3.2,12-0.1s3.3-8.6,0.1-12l-11.1-11h146.5l-11,11c-2.2,2.1-3.1,5.3-2.3,8.3
	s3.1,5.3,6.1,6.1c3,0.8,6.2-0.1,8.3-2.3l25.6-25.6C401,430.3,401.7,426.6,400.4,423.4L400.4,423.4z"/>
<path class="st0" d="M128,179.2c4.7,0,8.5-3.8,8.5-8.5v-17.1h17.1c4.7,0,8.5-3.8,8.5-8.5c0-4.7-3.8-8.5-8.5-8.5H128
	c-4.7,0-8.5,3.8-8.5,8.5v25.6C119.5,175.4,123.3,179.2,128,179.2z"/>
<path class="st0" d="M469.3,136.5h-25.6c-4.7,0-8.5,3.8-8.5,8.5c0,4.7,3.8,8.5,8.5,8.5h17.1v17.1c0,4.7,3.8,8.5,8.5,8.5
	c4.7,0,8.5-3.8,8.5-8.5v-25.6C477.9,140.4,474,136.5,469.3,136.5z"/>
<path class="st0" d="M153.6,460.8h-17.1v-17.1c0-4.7-3.8-8.5-8.5-8.5s-8.5,3.8-8.5,8.5v25.6c0,4.7,3.8,8.5,8.5,8.5h25.6
	c4.7,0,8.5-3.8,8.5-8.5C162.1,464.6,158.3,460.8,153.6,460.8z"/>
<path class="st0" d="M469.3,435.2c-4.7,0-8.5,3.8-8.5,8.5v17.1h-17.1c-4.7,0-8.5,3.8-8.5,8.5c0,4.7,3.8,8.5,8.5,8.5h25.6
	c4.7,0,8.5-3.8,8.5-8.5v-25.6C477.9,439,474,435.2,469.3,435.2z"/>
</svg>
