<?xml version="1.0" encoding="utf-8"?>
<!-- Generator: Adobe Illustrator 21.1.0, SVG Export Plug-In . SVG Version: 6.00 Build 0)  -->
<svg version="1.1" id="Layer_1" xmlns="http://www.w3.org/2000/svg" xmlns:xlink="http://www.w3.org/1999/xlink" x="0px" y="0px"
	 viewBox="0 0 512 512" style="enable-background:new 0 0 512 512;" xml:space="preserve">
<style type="text/css">
	.st0{fill:#C1C7D1;}
</style>
<path class="st0" d="M469.3,0H42.7C19.1,0,0,19.1,0,42.7v324.3c0,23.6,19.1,42.6,42.7,42.7h298.7v17.1H17.1
	c-9.4,0-17.1,7.6-17.1,17.1v51.2c0,9.4,7.6,17.1,17.1,17.1h477.9c9.4,0,17.1-7.6,17.1-17.1v-51.2c0-9.4-7.6-17.1-17.1-17.1h-85.3
	v-17.1h59.7c23.6,0,42.6-19.1,42.7-42.7V42.7C512,19.1,492.9,0,469.3,0z M42.7,17.1h426.7c14.1,0,25.6,11.5,25.6,25.6v25.6H17.1
	V42.7C17.1,28.5,28.5,17.1,42.7,17.1z M392.5,443.7c0,9.4-7.6,17.1-17.1,17.1s-17.1-7.6-17.1-17.1v-76.8h34.1V443.7z M401.1,349.9
	h-76.8c-9.4,0-17.1-7.6-17.1-17.1v-25.6h136.5v25.6c0,9.4-7.6,17.1-17.1,17.1H401.1z M443.7,179.2v51.2h-25.6
	c-4.7,0-8.5-3.8-8.5-8.5c0-14.1-11.5-25.6-25.6-25.6s-25.6,11.5-25.6,25.6v25.6c0,4.7-3.8,8.5-8.5,8.5c-4.7,0-8.5-3.8-8.5-8.5v-17.1
	c0-14.1-11.5-25.6-25.6-25.6h-8.5v-25.6H443.7z M307.2,221.9h8.5c4.7,0,8.5,3.8,8.5,8.5v17.1c0,14.1,11.5,25.6,25.6,25.6
	c14.1,0,25.6-11.5,25.6-25.6v-25.6c0-4.7,3.8-8.5,8.5-8.5s8.5,3.8,8.5,8.5c0,14.1,11.5,25.6,25.6,25.6h25.6v42.7H307.2V221.9z
	 M443.7,162.1h-25.6v-51.2c0-4.7-3.8-8.5-8.5-8.5c-4.7,0-8.5,3.8-8.5,8.5v51.2h-59.7v-25.6c0-4.7-3.8-8.5-8.5-8.5
	c-4.7,0-8.5,3.8-8.5,8.5v25.6h-17.1V85.3h51.2V128c0,4.7,3.8,8.5,8.5,8.5c4.7,0,8.5-3.8,8.5-8.5V85.3h68.3V162.1z M42.7,392.5
	c-14.1,0-25.6-11.5-25.6-25.6V85.3h273.1v247.5c0,18.9,15.3,34.1,34.1,34.1h17.1v25.6H42.7z M452.3,443.7v8.5c0,4.7,3.8,8.5,8.5,8.5
	c4.7,0,8.5-3.8,8.5-8.5v-8.5h25.6v51.2H17.1v-51.2h25.6v8.5c0,4.7,3.8,8.5,8.5,8.5c4.7,0,8.5-3.8,8.5-8.5v-8.5h17.1v8.5
	c0,4.7,3.8,8.5,8.5,8.5c4.7,0,8.5-3.8,8.5-8.5v-8.5h17.1v8.5c0,4.7,3.8,8.5,8.5,8.5c4.7,0,8.5-3.8,8.5-8.5v-8.5h17.1v25.6
	c0,4.7,3.8,8.5,8.5,8.5c4.7,0,8.5-3.8,8.5-8.5v-25.6h17.1v8.5c0,4.7,3.8,8.5,8.5,8.5c4.7,0,8.5-3.8,8.5-8.5v-8.5h17.1v8.5
	c0,4.7,3.8,8.5,8.5,8.5c4.7,0,8.5-3.8,8.5-8.5v-8.5h17.1v8.5c0,4.7,3.8,8.5,8.5,8.5s8.5-3.8,8.5-8.5v-8.5h17.1v25.6
	c0,4.7,3.8,8.5,8.5,8.5c4.7,0,8.5-3.8,8.5-8.5v-25.6h42.7c0,18.9,15.3,34.1,34.1,34.1c18.9,0,34.1-15.3,34.1-34.1H452.3z
	 M469.3,392.5h-59.7v-25.6h17.1c18.9,0,34.1-15.3,34.1-34.1V85.3h34.1v281.6C494.9,381.1,483.5,392.5,469.3,392.5z"/>
<path class="st0" d="M45.1,48.7c1.6,1.6,3.8,2.4,6.1,2.5c0.6,0,1.1-0.1,1.7-0.2c0.5-0.1,1.1-0.3,1.5-0.5c0.5-0.2,1.1-0.4,1.5-0.8
	l1.3-1c0.8-0.8,1.4-1.8,1.8-2.8c0.5-1,0.7-2.1,0.7-3.2c0-0.6-0.1-1.1-0.2-1.7c-0.1-0.5-0.3-1.1-0.5-1.5c-0.2-0.5-0.4-1-0.8-1.5
	c-0.3-0.5-0.7-0.9-1-1.4l-1.3-1c-0.5-0.3-1-0.6-1.5-0.8c-0.5-0.2-1-0.4-1.5-0.5c-2.5-0.5-5.1,0.1-7.1,1.7c-2,1.6-3.1,4.1-3.1,6.6
	c0,1.1,0.2,2.2,0.7,3.2C43.8,46.9,44.4,47.9,45.1,48.7z"/>
<path class="st0" d="M79.3,48.7c1.6,1.6,3.8,2.4,6.1,2.5c0.6,0,1.1-0.1,1.7-0.2c0.5-0.1,1.1-0.3,1.5-0.5c0.5-0.2,1.1-0.4,1.5-0.8
	l1.3-1c0.8-0.8,1.4-1.8,1.8-2.8c0.5-1,0.7-2.1,0.7-3.2c0-0.6-0.1-1.1-0.2-1.7c-0.1-0.5-0.3-1.1-0.5-1.5c-0.2-0.5-0.4-1-0.8-1.5
	c-0.3-0.5-0.7-0.9-1-1.4l-1.3-1c-0.5-0.3-1-0.6-1.5-0.8c-0.5-0.2-1-0.4-1.5-0.5c-2.5-0.5-5.1,0.1-7.1,1.7s-3.1,4.1-3.1,6.6
	c0,1.1,0.2,2.2,0.7,3.2C77.9,46.9,78.5,47.9,79.3,48.7z"/>
<path class="st0" d="M113.4,48.7c1.6,1.6,3.8,2.4,6.1,2.5c0.6,0,1.1-0.1,1.7-0.2c0.5-0.1,1.1-0.3,1.5-0.5c0.5-0.2,1.1-0.4,1.5-0.8
	l1.3-1c0.8-0.8,1.4-1.8,1.8-2.8c0.5-1,0.7-2.1,0.7-3.2c0-0.6-0.1-1.1-0.2-1.7c-0.1-0.5-0.3-1.1-0.5-1.5c-0.2-0.5-0.4-1-0.8-1.5
	c-0.3-0.5-0.7-0.9-1-1.4l-1.3-1c-0.5-0.3-1-0.6-1.5-0.8c-0.5-0.2-1-0.4-1.5-0.5c-2.5-0.5-5.1,0.1-7.1,1.7s-3.1,4.1-3.1,6.6
	c0,1.1,0.2,2.2,0.7,3.2C112.1,46.9,112.7,47.9,113.4,48.7z"/>
<path class="st0" d="M256,51.2h213.3c4.7,0,8.5-3.8,8.5-8.5c0-4.7-3.8-8.5-8.5-8.5H256c-4.7,0-8.5,3.8-8.5,8.5
	C247.5,47.4,251.3,51.2,256,51.2z"/>
<path class="st0" d="M212.8,116.7c-0.2-0.6-0.5-1.1-0.8-1.6c-0.1-0.3-0.3-0.6-0.5-0.9c-0.1-0.1-0.3-0.2-0.4-0.3
	c-0.4-0.4-0.9-0.8-1.4-1.2c-0.4-0.3-0.8-0.6-1.2-0.9c-0.5-0.2-1-0.4-1.5-0.5c-0.6-0.2-1.1-0.3-1.7-0.3c-0.2,0-0.3-0.1-0.5-0.1H51.2
	c-0.2,0-0.3,0.1-0.5,0.1c-0.6,0.1-1.1,0.2-1.7,0.3c-0.5,0.1-1,0.3-1.5,0.5c-0.4,0.2-0.9,0.5-1.2,0.9c-0.5,0.3-1,0.7-1.4,1.2
	c-0.1,0.1-0.3,0.2-0.4,0.3c-0.2,0.3-0.3,0.6-0.5,0.9c-0.3,0.5-0.6,1-0.8,1.6c-0.2,0.6-0.3,1.1-0.4,1.7c-0.1,0.3-0.2,0.7-0.2,1v119.5
	c0,0.3,0.1,0.7,0.2,1c0.1,0.6,0.2,1.2,0.4,1.7c0.2,0.6,0.5,1.1,0.8,1.6c0.1,0.3,0.3,0.6,0.5,0.9c0.1,0.1,0.2,0.2,0.3,0.3
	c0.6,0.7,1.3,1.3,2.1,1.7c0.2,0.2,0.5,0.4,0.8,0.5c1.1,0.5,2.3,0.8,3.5,0.8h153.6c1.2,0,2.4-0.3,3.5-0.8c0.3-0.2,0.5-0.3,0.8-0.5
	c0.8-0.5,1.5-1,2.1-1.7c0.1-0.1,0.3-0.2,0.3-0.3c0.2-0.3,0.3-0.6,0.5-0.9c0.3-0.5,0.6-1,0.8-1.6c0.2-0.6,0.3-1.1,0.4-1.7
	c0.1-0.3,0.2-0.7,0.2-1V119.5c0-0.3-0.1-0.7-0.2-1C213.1,117.9,213,117.3,212.8,116.7z M59.7,136.9l54.4,42.3l-54.4,42.3V136.9z
	 M76.1,128h103.9L128,168.4L76.1,128z M128,190l51.9,40.4H76.1L128,190z M141.9,179.2l54.4-42.3v84.6L141.9,179.2z"/>
<path class="st0" d="M51.2,281.6h42.7c4.7,0,8.5-3.8,8.5-8.5c0-4.7-3.8-8.5-8.5-8.5H51.2c-4.7,0-8.5,3.8-8.5,8.5
	C42.7,277.8,46.5,281.6,51.2,281.6z"/>
<path class="st0" d="M204.8,264.5H128c-4.7,0-8.5,3.8-8.5,8.5c0,4.7,3.8,8.5,8.5,8.5h76.8c4.7,0,8.5-3.8,8.5-8.5
	C213.3,268.4,209.5,264.5,204.8,264.5z"/>
<path class="st0" d="M204.8,332.8h-42.7c-4.7,0-8.5,3.8-8.5,8.5c0,4.7,3.8,8.5,8.5,8.5h42.7c4.7,0,8.5-3.8,8.5-8.5
	C213.3,336.6,209.5,332.8,204.8,332.8z"/>
<path class="st0" d="M128,332.8H51.2c-4.7,0-8.5,3.8-8.5,8.5c0,4.7,3.8,8.5,8.5,8.5H128c4.7,0,8.5-3.8,8.5-8.5
	C136.5,336.6,132.7,332.8,128,332.8z"/>
<path class="st0" d="M204.8,298.7H51.2c-4.7,0-8.5,3.8-8.5,8.5c0,4.7,3.8,8.5,8.5,8.5h153.6c4.7,0,8.5-3.8,8.5-8.5
	C213.3,302.5,209.5,298.7,204.8,298.7z"/>
</svg>
