<svg xmlns="http://www.w3.org/2000/svg" xmlns:xlink="http://www.w3.org/1999/xlink" viewBox="0 0 632.57 577.33"><defs><style>.cls-1{isolation:isolate;}.cls-13,.cls-2{fill:#09264a;}.cls-3{fill:url(#linear-gradient);}.cls-4{fill:url(#linear-gradient-2);}.cls-5{fill:#2f3d88;}.cls-10,.cls-6{opacity:0.7;mix-blend-mode:multiply;}.cls-6{fill:url(#linear-gradient-3);}.cls-7{fill:#6574c4;}.cls-8{fill:url(#linear-gradient-4);}.cls-9{fill:url(#linear-gradient-5);}.cls-10{fill:url(#linear-gradient-6);}.cls-11{fill:#071c38;}.cls-12{fill:#3a516e;}.cls-13{font-size:130px;font-family:Nunito-Black, Nunito;}.cls-14{letter-spacing:-0.07em;}.cls-15{letter-spacing:-0.09em;}.cls-16{letter-spacing:-0.01em;}.cls-17{font-size:50px;font-family:Nunito-ExtraLight, Nunito;}.cls-18{letter-spacing:-0.01em;}</style><linearGradient id="linear-gradient" x1="545.81" y1="572.24" x2="741.84" y2="572.24" gradientUnits="userSpaceOnUse"><stop offset="0" stop-color="#2f3d88"/><stop offset="0.3" stop-color="#35459a"/><stop offset="0.71" stop-color="#3c4eae"/><stop offset="1" stop-color="#3f51b5"/></linearGradient><linearGradient id="linear-gradient-2" x1="605.99" y1="704.91" x2="742.49" y2="704.91" xlink:href="#linear-gradient"/><linearGradient id="linear-gradient-3" x1="640.11" y1="706.71" x2="656.56" y2="645.34" gradientTransform="translate(31.15)" gradientUnits="userSpaceOnUse"><stop offset="0" stop-color="#fff" stop-opacity="0"/><stop offset="1"/></linearGradient><linearGradient id="linear-gradient-4" x1="334.43" y1="572.24" x2="530.46" y2="572.24" gradientTransform="matrix(-1, 0, 0, 1, 1288.61, 0)" xlink:href="#linear-gradient"/><linearGradient id="linear-gradient-5" x1="394.61" y1="704.91" x2="531.1" y2="704.91" gradientTransform="matrix(-1, 0, 0, 1, 1288.61, 0)" xlink:href="#linear-gradient"/><linearGradient id="linear-gradient-6" x1="428.73" y1="706.71" x2="445.18" y2="645.34" gradientTransform="matrix(-1, 0, 0, 1, 1257.46, 0)" xlink:href="#linear-gradient-3"/></defs><title>logo</title><g class="cls-1"><g id="Layer_1" data-name="Layer 1"><path class="cls-2" d="M757.94,722.79a14.07,14.07,0,0,0-16,0l-11.92,9a15.5,15.5,0,0,0-5.12,15.6l4.16,13.91a33.84,33.84,0,0,0,11,15.35l1.67,1.18a15.19,15.19,0,0,0,16.33,0l1.67-1.18a33.84,33.84,0,0,0,11-15.35L775,747.39a15.5,15.5,0,0,0-5.12-15.6Z" transform="translate(-433.71 -461.33)"/><path class="cls-3" d="M546,509.13a10.19,10.19,0,0,1,7.58-12.05l81-19.05c5.35-1.26,13.34.41,17.74,3.71l79.68,59.72c4.4,3.3,8.07,10.5,8.16,16l1.63,102.38c.09,5.5-4,8.39-9.18,6.43l-77.5-29.59c-5.14-2-13.47-5.35-18.52-7.53L575,602.55c-5.05-2.18-10.15-8.36-11.34-13.73Z" transform="translate(-433.71 -461.33)"/><path class="cls-4" d="M647.83,769.34A8.54,8.54,0,0,0,660.72,772l73.94-55.79c4.39-3.31,7.91-10.52,7.82-16l-.32-20.39c-.09-5.5-4.36-11.6-9.5-13.57l-77.5-29.59a14.22,14.22,0,0,0-15.41,4.38l-30.87,40.47c-3.34,4.37-3.86,11.87-1.15,16.66Z" transform="translate(-433.71 -461.33)"/><path class="cls-5" d="M639.75,644.09c3.34-6,2.64-6.5-1.55-1l-29.25,38.35c-3.38,4.43-3.9,12-1.17,16.87l37.86,67.16c3.9,6.93,4.39,6.68,1.09-.55L617.54,701.1c-2.31-5-2-13.16.68-18Z" transform="translate(-433.71 -461.33)"/><path class="cls-6" d="M639.75,641.06a14.22,14.22,0,0,1,15.41-4.38l77.5,29.59c5.14,2,9.41,8.07,9.5,13.57l.32,20.39a8.23,8.23,0,0,1-9.73,8.53L612.7,690.95c-5.44-.81-7.16-5-3.83-9.42Z" transform="translate(-433.71 -461.33)"/><path class="cls-7" d="M728.57,541c6.31,3.52,6.75,2.86,1-1.48l-77.08-57.77c-4.44-3.33-12.5-5-17.91-3.74l-78.4,18.44c-6.74,1.58-6.6,2.5.31,2l75.49-5.11a40,40,0,0,1,18.83,4.22Z" transform="translate(-433.71 -461.33)"/><path class="cls-5" d="M726.09,662.33c8.75,4.13,8.51,4.68-.52,1.23l-70.42-26.89c-5.14-2-13.47-5.35-18.52-7.53l-61.5-26.53c-5.12-2.21-10.3-8.48-11.51-13.93l-16.57-75c-1.74-7.88-1-8.11,1.74-.5l24.49,69.12c1.86,5.25,7.5,11.48,12.53,13.86Z" transform="translate(-433.71 -461.33)"/><path class="cls-8" d="M954,509.13a10.19,10.19,0,0,0-7.58-12.05l-81-19.05c-5.35-1.26-13.34.41-17.74,3.71l-79.68,59.72c-4.4,3.3-8.07,10.5-8.16,16l-1.63,102.38c-.09,5.5,4,8.39,9.18,6.43l77.5-29.59c5.14-2,13.47-5.35,18.52-7.53L925,602.55c5.05-2.18,10.15-8.36,11.34-13.73Z" transform="translate(-433.71 -461.33)"/><path class="cls-9" d="M852.17,769.34A8.54,8.54,0,0,1,839.28,772l-73.94-55.79c-4.39-3.31-7.91-10.52-7.82-16l.32-20.39c.09-5.5,4.36-11.6,9.5-13.57l77.5-29.59a14.22,14.22,0,0,1,15.41,4.38l30.87,40.47c3.34,4.37,3.86,11.87,1.15,16.66Z" transform="translate(-433.71 -461.33)"/><path class="cls-5" d="M860.25,644.09c-3.34-6-2.64-6.5,1.55-1l29.25,38.35c3.38,4.43,3.9,12,1.17,16.87l-37.86,67.16c-3.9,6.93-4.39,6.68-1.09-.55l29.19-63.81c2.31-5,2-13.16-.68-18Z" transform="translate(-433.71 -461.33)"/><path class="cls-10" d="M860.25,641.06a14.22,14.22,0,0,0-15.41-4.38l-77.5,29.59c-5.14,2-9.41,8.07-9.5,13.57l-.32,20.39a8.23,8.23,0,0,0,9.73,8.53l120.05-17.8c5.44-.81,7.16-5,3.83-9.42Z" transform="translate(-433.71 -461.33)"/><path class="cls-7" d="M771.43,541c-6.31,3.52-6.75,2.86-1-1.48l77.08-57.77c4.44-3.33,12.5-5,17.91-3.74l78.4,18.44c6.74,1.58,6.6,2.5-.31,2l-75.49-5.11a40,40,0,0,0-18.83,4.22Z" transform="translate(-433.71 -461.33)"/><path class="cls-5" d="M773.9,662.33c-8.75,4.13-8.51,4.68.52,1.23l70.42-26.89c5.14-2,13.47-5.35,18.52-7.53l61.5-26.53c5.12-2.21,10.3-8.48,11.51-13.93l16.57-75c1.74-7.88,1-8.11-1.74-.5l-24.49,69.12c-1.86,5.25-7.5,11.48-12.53,13.86Z" transform="translate(-433.71 -461.33)"/><path class="cls-2" d="M788.14,469.69c-3-4.59-10-8.35-15.5-8.35H727.28c-5.5,0-12.47,3.76-15.5,8.35l-7,10.7a12.25,12.25,0,0,0,1.84,15.15l36,33.38a11,11,0,0,0,14.67,0l36-33.38a12.25,12.25,0,0,0,1.84-15.15Z" transform="translate(-433.71 -461.33)"/><path class="cls-11" d="M784.77,472.38c-1.17-6.08.66-6.82,4.06-1.65l6.23,9.48a12.51,12.51,0,0,1-1.88,15.47l-33.44,31c-5.38,5-6,4.37-1.46-1.35l23.24-29.06c3.47-4.35,5.46-12.37,4.41-17.83Z" transform="translate(-433.71 -461.33)"/><path class="cls-12" d="M715,472.41c1.24-6.09-.53-6.82-3.95-1.63l-6.21,9.44a12.51,12.51,0,0,0,1.88,15.47l33.36,30.89c5.43,5,6.07,4.43,1.42-1.33l-23.41-29c-3.49-4.33-5.44-12.34-4.33-17.79Z" transform="translate(-433.71 -461.33)"/><path class="cls-11" d="M756.86,725.74c-3.8-4.38-3.12-6.11,1.51-2.62l11.45,8.64A15.56,15.56,0,0,1,775,747.42l-4.14,13.86a33.91,33.91,0,0,1-11,15.38l-1.21.86s-5.85,4.26-1.46-1.66h0a44.13,44.13,0,0,0,9-17.14l2-8.77c1.2-5.38-.77-13.2-4.38-17.37Z" transform="translate(-433.71 -461.33)"/><path class="cls-12" d="M742.81,775.86c4.84,6.17-1.46,1.66-1.46,1.66l-1.21-.86a33.91,33.91,0,0,1-11-15.38L725,747.42a15.56,15.56,0,0,1,5.14-15.67l11.47-8.65c4.62-3.48,5.33-1.73,1.58,2.68l-6.58,6.74c-3.57,4.2-5.57,12.06-4.43,17.45l1.83,8.71a43,43,0,0,0,8.85,17.16Z" transform="translate(-433.71 -461.33)"/><text class="cls-13" transform="translate(0 476.67)">A<tspan class="cls-14" x="98.93" y="0">P</tspan><tspan class="cls-15" x="177.19" y="0">A</tspan><tspan x="264.16" y="0">TU</tspan><tspan class="cls-16" x="443.16" y="0">R</tspan><tspan x="533.64" y="0">A</tspan></text><text class="cls-17" transform="translate(81.87 563.58)">challenging the futu<tspan class="cls-18" x="426.84" y="0">r</tspan><tspan x="442.64" y="0">e</tspan></text></g></g></svg>