<?xml version="1.0" encoding="utf-8"?>
<!-- Generator: Adobe Illustrator 21.1.0, SVG Export Plug-In . SVG Version: 6.00 Build 0)  -->
<svg version="1.1" id="Layer_1" xmlns="http://www.w3.org/2000/svg" xmlns:xlink="http://www.w3.org/1999/xlink" x="0px" y="0px"
	 viewBox="0 0 512 512" style="enable-background:new 0 0 512 512;" xml:space="preserve">
<style type="text/css">
	.st0{fill:#C1C7D1;}
</style>
<path class="st0" d="M179.2,153.6h17.1c4.7,0,8.5-3.8,8.5-8.5c0-4.7-3.8-8.5-8.5-8.5h-17.1c-4.7,0-8.5,3.8-8.5,8.5
	C170.7,149.8,174.5,153.6,179.2,153.6z"/>
<path class="st0" d="M187.7,435.2c-10.4,0-19.7,6.2-23.7,15.8s-1.8,20.6,5.6,27.9c7.3,7.3,18.3,9.5,27.9,5.6
	c9.6-4,15.8-13.3,15.8-23.7C213.3,446.7,201.9,435.2,187.7,435.2z M187.7,469.3c-4.7,0-8.5-3.8-8.5-8.5c0-4.7,3.8-8.5,8.5-8.5
	c4.7,0,8.5,3.8,8.5,8.5C196.3,465.5,192.4,469.3,187.7,469.3z"/>
<path class="st0" d="M110.9,213.3c2.3,0,4.4-0.9,6-2.5l17.1-17.1c3.2-3.3,3.2-8.7-0.1-12s-8.6-3.3-12-0.1l-17.1,17.1
	c-2.4,2.4-3.2,6.1-1.8,9.3S107.5,213.3,110.9,213.3z"/>
<path class="st0" d="M185.2,181.7c-3.3-3.3-8.7-3.3-12.1,0L104.9,250c-2.2,2.1-3.1,5.3-2.3,8.3s3.1,5.3,6.1,6.1s6.2-0.1,8.3-2.3
	l68.3-68.3C188.6,190.4,188.6,185,185.2,181.7z"/>
<path class="st0" d="M486.4,315.7H307.2V179.2h17.1c9.4,0,17.1-7.6,17.1-17.1h17.1c9.4,0,17.1-7.6,17.1-17.1h17.1
	c0,9.4,7.6,17.1,17.1,17.1h76.8c14.1,0,25.6-11.5,25.6-25.6c0-14.1-11.5-25.6-25.6-25.6h-76.8c-9.4,0-17.1,7.6-17.1,17.1h-17.1
	c0-9.4-7.6-17.1-17.1-17.1h-17.1V17.1c0-9.4-7.6-17.1-17.1-17.1H51.2c-9.4,0-17.1,7.6-17.1,17.1v93.9H17.1C7.6,110.9,0,118.6,0,128
	v17.1c0,9.4,7.6,17.1,17.1,17.1h17.1c0,9.4,7.6,17.1,17.1,17.1h17.1v136.5H25.6C11.5,315.7,0,327.2,0,341.3v51.2
	c0,14.1,11.5,25.6,25.6,25.6h42.7v59.7c0,18.9,15.3,34.1,34.1,34.1h170.7c18.9,0,34.1-15.3,34.1-34.1v-59.7h179.2
	c14.1,0,25.6-11.5,25.6-25.6v-51.2C512,327.2,500.5,315.7,486.4,315.7z M409.6,128h76.8c4.7,0,8.5,3.8,8.5,8.5
	c0,4.7-3.8,8.5-8.5,8.5h-76.8V128z M85.3,51.2h204.8v55.9c-5.2-3.1-11.1-4.7-17.1-4.7H102.4c-6,0-11.9,1.7-17.1,4.7V51.2z
	 M358.4,128v17.1h-17.1V128H358.4z M17.1,145.1V128h17.1v17.1H17.1z M51.2,162.1V17.1h273.1v145.1h-17.1V42.7c0-4.7-3.8-8.5-8.5-8.5
	H76.8c-4.7,0-8.5,3.8-8.5,8.5v119.5H51.2z M85.3,170.7v-34.1c0-9.4,7.6-17.1,17.1-17.1h170.7c9.4,0,17.1,7.6,17.1,17.1v179.2H85.3
	V170.7z M290.1,477.9c0,9.4-7.6,17.1-17.1,17.1H102.4c-9.4,0-17.1-7.6-17.1-17.1v-59.7h204.8V477.9z M494.9,392.5
	c0,4.7-3.8,8.5-8.5,8.5h-17.1V384c0-4.7-3.8-8.5-8.5-8.5c-4.7,0-8.5,3.8-8.5,8.5v17.1h-17.1v-8.5c0-4.7-3.8-8.5-8.5-8.5
	c-4.7,0-8.5,3.8-8.5,8.5v8.5h-17.1v-8.5c0-4.7-3.8-8.5-8.5-8.5c-4.7,0-8.5,3.8-8.5,8.5v8.5h-17.1V384c0-4.7-3.8-8.5-8.5-8.5
	c-4.7,0-8.5,3.8-8.5,8.5v17.1h-17.1v-8.5c0-4.7-3.8-8.5-8.5-8.5c-4.7,0-8.5,3.8-8.5,8.5v8.5h-17.1v-8.5c0-4.7-3.8-8.5-8.5-8.5
	c-4.7,0-8.5,3.8-8.5,8.5v8.5h-17.1V384c0-4.7-3.8-8.5-8.5-8.5s-8.5,3.8-8.5,8.5v17.1h-17.1v-8.5c0-4.7-3.8-8.5-8.5-8.5
	c-4.7,0-8.5,3.8-8.5,8.5v8.5h-17.1v-8.5c0-4.7-3.8-8.5-8.5-8.5c-4.7,0-8.5,3.8-8.5,8.5v8.5h-17.1V384c0-4.7-3.8-8.5-8.5-8.5
	c-4.7,0-8.5,3.8-8.5,8.5v17.1H128v-8.5c0-4.7-3.8-8.5-8.5-8.5c-4.7,0-8.5,3.8-8.5,8.5v8.5H93.9v-8.5c0-4.7-3.8-8.5-8.5-8.5
	c-4.7,0-8.5,3.8-8.5,8.5v8.5H59.7V384c0-4.7-3.8-8.5-8.5-8.5c-4.7,0-8.5,3.8-8.5,8.5v17.1H25.6c-4.7,0-8.5-3.8-8.5-8.5v-51.2
	c0-4.7,3.8-8.5,8.5-8.5h17.1v17.1c0,4.7,3.8,8.5,8.5,8.5c4.7,0,8.5-3.8,8.5-8.5v-17.1h17.1v8.5c0,4.7,3.8,8.5,8.5,8.5
	c4.7,0,8.5-3.8,8.5-8.5v-8.5h17.1v8.5c0,4.7,3.8,8.5,8.5,8.5c4.7,0,8.5-3.8,8.5-8.5v-8.5h17.1v17.1c0,4.7,3.8,8.5,8.5,8.5
	c4.7,0,8.5-3.8,8.5-8.5v-17.1h17.1v8.5c0,4.7,3.8,8.5,8.5,8.5c4.7,0,8.5-3.8,8.5-8.5v-8.5h17.1v8.5c0,4.7,3.8,8.5,8.5,8.5
	c4.7,0,8.5-3.8,8.5-8.5v-8.5h17.1v17.1c0,4.7,3.8,8.5,8.5,8.5s8.5-3.8,8.5-8.5v-17.1h17.1v8.5c0,4.7,3.8,8.5,8.5,8.5
	c4.7,0,8.5-3.8,8.5-8.5v-8.5h17.1v8.5c0,4.7,3.8,8.5,8.5,8.5c4.7,0,8.5-3.8,8.5-8.5v-8.5h17.1v17.1c0,4.7,3.8,8.5,8.5,8.5
	c4.7,0,8.5-3.8,8.5-8.5v-17.1H384v8.5c0,4.7,3.8,8.5,8.5,8.5c4.7,0,8.5-3.8,8.5-8.5v-8.5h17.1v8.5c0,4.7,3.8,8.5,8.5,8.5
	c4.7,0,8.5-3.8,8.5-8.5v-8.5h17.1v17.1c0,4.7,3.8,8.5,8.5,8.5c4.7,0,8.5-3.8,8.5-8.5v-17.1h17.1c4.7,0,8.5,3.8,8.5,8.5V392.5z"/>
</svg>
