<?xml version="1.0" encoding="utf-8"?>
<!-- Generator: Adobe Illustrator 21.1.0, SVG Export Plug-In . SVG Version: 6.00 Build 0)  -->
<svg version="1.1" id="Layer_1" xmlns="http://www.w3.org/2000/svg" xmlns:xlink="http://www.w3.org/1999/xlink" x="0px" y="0px"
	 viewBox="0 0 512 512" style="enable-background:new 0 0 512 512;" xml:space="preserve">
<style type="text/css">
	.st0{fill:#C1C7D1;}
</style>
<path class="st0" d="M469.3,34.2h-17.9C447.4,14.3,429.9,0,409.6,0c-20.3,0-37.8,14.3-41.8,34.2H68.3v-8.5C68.3,11.5,56.8,0,42.7,0
	H8.6C3.9,0,0,3.9,0,8.6v494.9c0,4.7,3.8,8.5,8.5,8.5h494.9c4.7,0,8.5-3.8,8.5-8.5c0-4.7-3.8-8.5-8.5-8.5H392.5v-8.5
	c0-14.1-11.5-25.6-25.6-25.6h-25.6v-34.1h128c23.5,0,42.6-19.1,42.7-42.7V76.8C512,53.3,492.9,34.2,469.3,34.2z M494.9,76.8v264.5
	h-53.2l9.9-24.5c0.4-1,0.6-2.1,0.6-3.2V51.2h17.1C483.5,51.2,494.9,62.7,494.9,76.8z M68.3,51.2h298.6v25.6h-85.3
	c-14.1,0-25.6,11.5-25.6,25.6v68.3c0,14.1,11.5,25.6,25.6,25.6h85.3v17.1h-51.2c-4.7,0-8.5,3.8-8.5,8.5c0,4.7,3.8,8.5,8.5,8.5h51.2
	v17.1H264.6c-4.7,0-8.5,3.8-8.5,8.5c0,4.7,3.8,8.5,8.5,8.5h102.4v49.1c0,1.1,0.2,2.2,0.6,3.2l9.9,24.5H68.3V51.2z M409.6,136.6
	c-4.7,0-8.5,3.8-8.5,8.5v145.7c-6,0.8-11.8,2.7-17.1,5.6V119.5h51.2v176.9c-5.3-2.9-11.1-4.8-17.1-5.6V145.1
	C418.1,140.4,414.3,136.6,409.6,136.6z M366.9,179.2h-85.3c-4.7,0-8.5-3.8-8.5-8.5v-68.3c0-4.7,3.8-8.5,8.5-8.5h85.3V179.2z
	 M435.2,102.4H384V85.4h51.2V102.4z M385.7,316.3c13.6-12,34.1-12,47.7,0l-23.8,59.2L385.7,316.3z M384,42.5
	c0-14.1,11.5-25.6,25.6-25.6c14.1,0,25.6,11.5,25.6,25.6v25.8H384V42.5z M17.1,494.9V17.1h25.6c4.7,0,8.5,3.8,8.5,8.5v8.5h-8.5
	c-4.7,0-8.5,3.8-8.5,8.5c0,4.7,3.8,8.5,8.5,8.5h8.5v17.1h-8.5c-4.7,0-8.5,3.8-8.5,8.5c0,4.7,3.8,8.5,8.5,8.5h8.5v17.1h-8.5
	c-4.7,0-8.5,3.8-8.5,8.5c0,4.7,3.8,8.5,8.5,8.5h8.5v17.1h-8.5c-4.7,0-8.5,3.8-8.5,8.5c0,4.7,3.8,8.5,8.5,8.5h8.5v17.1h-8.5
	c-4.7,0-8.5,3.8-8.5,8.5c0,4.7,3.8,8.5,8.5,8.5h8.5v17.1h-8.5c-4.7,0-8.5,3.8-8.5,8.5c0,4.7,3.8,8.5,8.5,8.5h8.5V239h-8.5
	c-4.7,0-8.5,3.8-8.5,8.5c0,4.7,3.8,8.5,8.5,8.5h8.5v17.1h-8.5c-4.7,0-8.5,3.8-8.5,8.5c0,4.7,3.8,8.5,8.5,8.5h8.5v17.1h-8.5
	c-4.7,0-8.5,3.8-8.5,8.5c0,4.7,3.8,8.5,8.5,8.5h8.5v17.1h-8.5c-4.7,0-8.5,3.8-8.5,8.5c0,4.7,3.8,8.5,8.5,8.5h8.5v17.1h-8.5
	c-4.7,0-8.5,3.8-8.5,8.5c0,4.7,3.8,8.5,8.5,8.5h8.5v17.1h-8.5c-4.7,0-8.5,3.8-8.5,8.5c0,4.7,3.8,8.5,8.5,8.5h8.5v17.1h-8.5
	c-4.7,0-8.5,3.8-8.5,8.5c0,4.7,3.8,8.5,8.5,8.5h8.5v34.1H17.1z M145.1,460.8c-14.1,0-25.6,11.5-25.6,25.6v8.5H68.3v-68.3h102.4v34.1
	H145.1z M375.5,486.4v8.5H136.6v-8.5c0-4.7,3.8-8.5,8.5-8.5h221.8C371.7,477.9,375.5,481.7,375.5,486.4z M324.3,460.8H187.8v-34.1
	h136.5V460.8z M469.3,409.6h-401v-51.2h316l9.5,23.5c2.6,6.5,8.9,10.7,15.8,10.7c7,0,13.2-4.2,15.8-10.7l9.5-23.5h60V384
	C494.9,398.1,483.5,409.6,469.3,409.6z"/>
<path class="st0" d="M213.4,76.8h-93.9c-14.1,0-25.6,11.5-25.6,25.6v68.3c0,14.1,11.5,25.6,25.6,25.6h93.9
	c14.1,0,25.6-11.5,25.6-25.6v-68.3C239,88.3,227.5,76.8,213.4,76.8z M221.9,170.7c0,4.7-3.8,8.5-8.5,8.5h-93.9
	c-4.7,0-8.5-3.8-8.5-8.5v-68.3c0-4.7,3.8-8.5,8.5-8.5h93.9c4.7,0,8.5,3.8,8.5,8.5V170.7z"/>
<path class="st0" d="M102.4,230.4h17.1c4.7,0,8.5-3.8,8.5-8.5c0-4.7-3.8-8.5-8.5-8.5h-17.1c-4.7,0-8.5,3.8-8.5,8.5
	C93.9,226.6,97.7,230.4,102.4,230.4z"/>
<path class="st0" d="M230.4,213.4h-76.8c-4.7,0-8.5,3.8-8.5,8.5c0,4.7,3.8,8.5,8.5,8.5h76.8c4.7,0,8.5-3.8,8.5-8.5
	C239,217.2,235.1,213.4,230.4,213.4z"/>
<path class="st0" d="M230.4,247.5h-128c-4.7,0-8.5,3.8-8.5,8.5c0,4.7,3.8,8.5,8.5,8.5h128c4.7,0,8.5-3.8,8.5-8.5
	C239,251.3,235.1,247.5,230.4,247.5z"/>
<path class="st0" d="M264.6,230.4h17.1c4.7,0,8.5-3.8,8.5-8.5c0-4.7-3.8-8.5-8.5-8.5h-17.1c-4.7,0-8.5,3.8-8.5,8.5
	C256,226.6,259.8,230.4,264.6,230.4z"/>
</svg>
